<svg xmlns="http://www.w3.org/2000/svg" xmlns:xlink="http://www.w3.org/1999/xlink" width="302" zoomAndPan="magnify" viewBox="0 0 226.5 509.99999" height="680" preserveAspectRatio="xMidYMid meet" version="1.0"><defs><g/><clipPath id="62acac3db5"><path d="M 99 301 L 135 301 L 135 353 L 99 353 Z M 99 301 " clip-rule="nonzero"/></clipPath><clipPath id="d0aa135f2e"><path d="M 87.132812 321.40625 L 133.980469 301.535156 L 147.421875 333.226562 L 100.574219 353.097656 Z M 87.132812 321.40625 " clip-rule="nonzero"/></clipPath><clipPath id="832c68ebd6"><path d="M 87.132812 321.40625 L 133.980469 301.535156 L 147.421875 333.226562 L 100.574219 353.097656 Z M 87.132812 321.40625 " clip-rule="nonzero"/></clipPath><clipPath id="51318daa4a"><path d="M 87.132812 321.40625 L 133.980469 301.535156 L 147.421875 333.226562 L 100.574219 353.097656 Z M 87.132812 321.40625 " clip-rule="nonzero"/></clipPath></defs><path stroke-linecap="round" transform="matrix(0.748343, -0.00285663, 0.00285663, 0.748343, 28.80243, 466.057968)" fill="none" stroke-linejoin="miter" d="M 0.50222 0.498641 L 225.52031 0.50154 " stroke="#000000" stroke-width="1" stroke-opacity="1" stroke-miterlimit="4"/><path stroke-linecap="round" transform="matrix(0.748344, -0.00240709, 0.00240709, 0.748344, 28.804095, 483.765414)" fill="none" stroke-linejoin="miter" d="M 0.500297 0.497778 L 225.523146 0.501236 " stroke="#000000" stroke-width="1" stroke-opacity="1" stroke-miterlimit="4"/><g fill="#000000" fill-opacity="1"><g transform="translate(38.75384, 477.309218)"><g><path d="M 2.578125 0 L 2.578125 -4.84375 L 0.984375 -4.84375 L 0.984375 -5.53125 C 1.421875 -5.550781 1.742188 -5.59375 1.953125 -5.65625 C 2.171875 -5.726562 2.34375 -5.847656 2.46875 -6.015625 C 2.601562 -6.191406 2.71875 -6.460938 2.8125 -6.828125 L 3.484375 -6.828125 L 3.484375 0 Z M 2.578125 0 "/></g></g></g><g fill="#000000" fill-opacity="1"><g transform="translate(44.149914, 477.309218)"><g><path d="M 2.71875 0.1875 C 1.945312 0.1875 1.359375 -0.125 0.953125 -0.75 C 0.554688 -1.375 0.359375 -2.234375 0.359375 -3.328125 C 0.359375 -4.441406 0.5625 -5.300781 0.96875 -5.90625 C 1.375 -6.519531 1.957031 -6.828125 2.71875 -6.828125 C 3.488281 -6.828125 4.066406 -6.507812 4.453125 -5.875 C 4.847656 -5.238281 5.046875 -4.390625 5.046875 -3.328125 C 5.046875 -2.253906 4.847656 -1.398438 4.453125 -0.765625 C 4.066406 -0.128906 3.488281 0.1875 2.71875 0.1875 Z M 4.125 -3.265625 C 4.125 -5.128906 3.644531 -6.0625 2.6875 -6.0625 C 2.226562 -6.0625 1.875 -5.828125 1.625 -5.359375 C 1.382812 -4.898438 1.265625 -4.222656 1.265625 -3.328125 C 1.265625 -2.441406 1.378906 -1.757812 1.609375 -1.28125 C 1.847656 -0.8125 2.210938 -0.578125 2.703125 -0.578125 C 3.179688 -0.578125 3.535156 -0.816406 3.765625 -1.296875 C 4.003906 -1.773438 4.125 -2.429688 4.125 -3.265625 Z M 4.125 -3.265625 "/></g></g></g><g fill="#000000" fill-opacity="1"><g transform="translate(49.545987, 477.309218)"><g><path d="M 2.71875 0.1875 C 1.945312 0.1875 1.359375 -0.125 0.953125 -0.75 C 0.554688 -1.375 0.359375 -2.234375 0.359375 -3.328125 C 0.359375 -4.441406 0.5625 -5.300781 0.96875 -5.90625 C 1.375 -6.519531 1.957031 -6.828125 2.71875 -6.828125 C 3.488281 -6.828125 4.066406 -6.507812 4.453125 -5.875 C 4.847656 -5.238281 5.046875 -4.390625 5.046875 -3.328125 C 5.046875 -2.253906 4.847656 -1.398438 4.453125 -0.765625 C 4.066406 -0.128906 3.488281 0.1875 2.71875 0.1875 Z M 4.125 -3.265625 C 4.125 -5.128906 3.644531 -6.0625 2.6875 -6.0625 C 2.226562 -6.0625 1.875 -5.828125 1.625 -5.359375 C 1.382812 -4.898438 1.265625 -4.222656 1.265625 -3.328125 C 1.265625 -2.441406 1.378906 -1.757812 1.609375 -1.28125 C 1.847656 -0.8125 2.210938 -0.578125 2.703125 -0.578125 C 3.179688 -0.578125 3.535156 -0.816406 3.765625 -1.296875 C 4.003906 -1.773438 4.125 -2.429688 4.125 -3.265625 Z M 4.125 -3.265625 "/></g></g></g><g fill="#000000" fill-opacity="1"><g transform="translate(54.942061, 477.309218)"><g><path d="M 2.65625 0.1875 L 2.125 0.1875 L 5.96875 -6.828125 L 6.5 -6.828125 Z M 2.046875 -3.453125 C 1.734375 -3.453125 1.445312 -3.523438 1.1875 -3.671875 C 0.9375 -3.828125 0.738281 -4.03125 0.59375 -4.28125 C 0.445312 -4.539062 0.375 -4.816406 0.375 -5.109375 C 0.375 -5.410156 0.445312 -5.6875 0.59375 -5.9375 C 0.738281 -6.1875 0.9375 -6.382812 1.1875 -6.53125 C 1.445312 -6.675781 1.734375 -6.75 2.046875 -6.75 C 2.335938 -6.75 2.609375 -6.675781 2.859375 -6.53125 C 3.117188 -6.382812 3.320312 -6.179688 3.46875 -5.921875 C 3.613281 -5.671875 3.6875 -5.398438 3.6875 -5.109375 C 3.6875 -4.816406 3.613281 -4.539062 3.46875 -4.28125 C 3.320312 -4.03125 3.117188 -3.828125 2.859375 -3.671875 C 2.609375 -3.523438 2.335938 -3.453125 2.046875 -3.453125 Z M 3.015625 -5.109375 C 3.015625 -5.378906 2.921875 -5.609375 2.734375 -5.796875 C 2.546875 -5.984375 2.3125 -6.078125 2.03125 -6.078125 C 1.769531 -6.078125 1.539062 -5.976562 1.34375 -5.78125 C 1.15625 -5.59375 1.0625 -5.367188 1.0625 -5.109375 C 1.0625 -4.816406 1.15625 -4.578125 1.34375 -4.390625 C 1.53125 -4.210938 1.757812 -4.125 2.03125 -4.125 C 2.300781 -4.125 2.53125 -4.21875 2.71875 -4.40625 C 2.914062 -4.601562 3.015625 -4.835938 3.015625 -5.109375 Z M 6.609375 0.0625 C 6.296875 0.0625 6.015625 -0.0078125 5.765625 -0.15625 C 5.515625 -0.3125 5.316406 -0.515625 5.171875 -0.765625 C 5.023438 -1.023438 4.953125 -1.300781 4.953125 -1.59375 C 4.953125 -1.894531 5.023438 -2.171875 5.171875 -2.421875 C 5.316406 -2.671875 5.515625 -2.867188 5.765625 -3.015625 C 6.023438 -3.160156 6.304688 -3.234375 6.609375 -3.234375 C 6.910156 -3.234375 7.1875 -3.160156 7.4375 -3.015625 C 7.695312 -2.867188 7.898438 -2.664062 8.046875 -2.40625 C 8.191406 -2.15625 8.265625 -1.882812 8.265625 -1.59375 C 8.265625 -1.300781 8.191406 -1.023438 8.046875 -0.765625 C 7.898438 -0.515625 7.695312 -0.3125 7.4375 -0.15625 C 7.1875 -0.0078125 6.910156 0.0625 6.609375 0.0625 Z M 7.578125 -1.59375 C 7.578125 -1.863281 7.484375 -2.09375 7.296875 -2.28125 C 7.109375 -2.46875 6.875 -2.5625 6.59375 -2.5625 C 6.332031 -2.5625 6.101562 -2.460938 5.90625 -2.265625 C 5.71875 -2.078125 5.625 -1.851562 5.625 -1.59375 C 5.625 -1.289062 5.71875 -1.050781 5.90625 -0.875 C 6.09375 -0.695312 6.320312 -0.609375 6.59375 -0.609375 C 6.863281 -0.609375 7.09375 -0.703125 7.28125 -0.890625 C 7.476562 -1.085938 7.578125 -1.320312 7.578125 -1.59375 Z M 7.578125 -1.59375 "/></g></g></g><g fill="#000000" fill-opacity="1"><g transform="translate(63.569953, 477.309218)"><g/></g></g><g fill="#000000" fill-opacity="1"><g transform="translate(66.267984, 477.309218)"><g><path d="M 5.328125 0 L 4.640625 -2.03125 L 1.84375 -2.03125 L 1.109375 0 L 0.140625 0 L 2.765625 -6.984375 L 3.828125 -6.984375 L 6.359375 0 Z M 4.296875 -2.859375 L 3.265625 -5.9375 L 3.25 -5.9375 L 2.125 -2.859375 Z M 4.296875 -2.859375 "/></g></g></g><g fill="#000000" fill-opacity="1"><g transform="translate(72.741326, 477.309218)"><g><path d="M 1.609375 -2.90625 L 1.609375 0 L 0.75 0 L 0.75 -5.078125 L 1.5625 -5.078125 L 1.5625 -4.234375 L 1.578125 -4.234375 C 1.753906 -4.554688 1.957031 -4.800781 2.1875 -4.96875 C 2.414062 -5.144531 2.6875 -5.234375 3 -5.234375 C 3.101562 -5.234375 3.179688 -5.222656 3.234375 -5.203125 L 3.234375 -4.3125 L 2.890625 -4.3125 C 2.679688 -4.3125 2.476562 -4.257812 2.28125 -4.15625 C 2.082031 -4.0625 1.921875 -3.90625 1.796875 -3.6875 C 1.671875 -3.476562 1.609375 -3.21875 1.609375 -2.90625 Z M 1.609375 -2.90625 "/></g></g></g><g fill="#000000" fill-opacity="1"><g transform="translate(75.973145, 477.309218)"><g><path d="M 4.875 -0.578125 C 4.957031 -0.578125 5.050781 -0.59375 5.15625 -0.625 L 5.15625 0 C 4.957031 0.0625 4.796875 0.09375 4.671875 0.09375 C 4.390625 0.09375 4.171875 0.0351562 4.015625 -0.078125 C 3.867188 -0.203125 3.789062 -0.40625 3.78125 -0.6875 C 3.289062 -0.132812 2.679688 0.140625 1.953125 0.140625 C 1.484375 0.140625 1.097656 0.00390625 0.796875 -0.265625 C 0.492188 -0.535156 0.34375 -0.890625 0.34375 -1.328125 C 0.34375 -1.765625 0.472656 -2.117188 0.734375 -2.390625 C 0.992188 -2.671875 1.378906 -2.847656 1.890625 -2.921875 L 3.296875 -3.09375 C 3.453125 -3.113281 3.566406 -3.164062 3.640625 -3.25 C 3.710938 -3.34375 3.75 -3.488281 3.75 -3.6875 C 3.75 -4.238281 3.351562 -4.515625 2.5625 -4.515625 C 2.207031 -4.515625 1.929688 -4.4375 1.734375 -4.28125 C 1.546875 -4.125 1.429688 -3.875 1.390625 -3.53125 L 0.609375 -3.53125 C 0.617188 -4.082031 0.796875 -4.503906 1.140625 -4.796875 C 1.484375 -5.085938 1.988281 -5.234375 2.65625 -5.234375 C 3.226562 -5.234375 3.691406 -5.113281 4.046875 -4.875 C 4.410156 -4.632812 4.59375 -4.273438 4.59375 -3.796875 L 4.59375 -0.859375 C 4.59375 -0.773438 4.613281 -0.707031 4.65625 -0.65625 C 4.695312 -0.601562 4.769531 -0.578125 4.875 -0.578125 Z M 3.734375 -1.765625 L 3.734375 -2.59375 C 3.648438 -2.53125 3.519531 -2.476562 3.34375 -2.4375 C 3.175781 -2.394531 2.796875 -2.332031 2.203125 -2.25 C 1.890625 -2.207031 1.648438 -2.117188 1.484375 -1.984375 C 1.316406 -1.859375 1.234375 -1.675781 1.234375 -1.4375 C 1.234375 -0.851562 1.539062 -0.5625 2.15625 -0.5625 C 2.425781 -0.5625 2.679688 -0.613281 2.921875 -0.71875 C 3.160156 -0.832031 3.351562 -0.976562 3.5 -1.15625 C 3.65625 -1.34375 3.734375 -1.546875 3.734375 -1.765625 Z M 2.28125 -5.765625 L 3.140625 -7.140625 L 4.1875 -7.140625 L 2.9375 -5.765625 Z M 2.28125 -5.765625 "/></g></g></g><g fill="#000000" fill-opacity="1"><g transform="translate(81.369218, 477.309218)"><g><path d="M 1.4375 -4.4375 C 1.800781 -4.96875 2.296875 -5.234375 2.921875 -5.234375 C 3.347656 -5.234375 3.71875 -5.125 4.03125 -4.90625 C 4.351562 -4.6875 4.597656 -4.382812 4.765625 -4 C 4.941406 -3.613281 5.03125 -3.179688 5.03125 -2.703125 C 5.03125 -2.160156 4.941406 -1.675781 4.765625 -1.25 C 4.597656 -0.820312 4.347656 -0.484375 4.015625 -0.234375 C 3.691406 0.015625 3.296875 0.140625 2.828125 0.140625 C 2.515625 0.140625 2.238281 0.0820312 2 -0.03125 C 1.757812 -0.15625 1.554688 -0.351562 1.390625 -0.625 L 1.375 -0.625 L 1.375 0 L 0.5625 0 L 0.5625 -6.984375 L 1.421875 -6.984375 L 1.421875 -4.4375 Z M 4.140625 -2.578125 C 4.140625 -3.234375 4.019531 -3.707031 3.78125 -4 C 3.550781 -4.300781 3.203125 -4.453125 2.734375 -4.453125 C 1.828125 -4.453125 1.375 -3.734375 1.375 -2.296875 C 1.375 -1.753906 1.507812 -1.332031 1.78125 -1.03125 C 2.050781 -0.738281 2.382812 -0.59375 2.78125 -0.59375 C 3.195312 -0.59375 3.523438 -0.765625 3.765625 -1.109375 C 4.015625 -1.460938 4.140625 -1.953125 4.140625 -2.578125 Z M 4.140625 -2.578125 "/></g></g></g><g fill="#000000" fill-opacity="1"><g transform="translate(86.765292, 477.309218)"><g><path d="M 0.65625 -6 L 0.65625 -6.984375 L 1.5 -6.984375 L 1.5 -6 Z M 0.65625 0 L 0.65625 -5.078125 L 1.5 -5.078125 L 1.5 0 Z M 0.65625 0 "/></g></g></g><g fill="#000000" fill-opacity="1"><g transform="translate(88.919841, 477.309218)"><g><path d="M 2.609375 -4.453125 C 2.160156 -4.453125 1.8125 -4.28125 1.5625 -3.9375 C 1.320312 -3.59375 1.203125 -3.128906 1.203125 -2.546875 C 1.203125 -1.910156 1.316406 -1.425781 1.546875 -1.09375 C 1.785156 -0.757812 2.132812 -0.59375 2.59375 -0.59375 C 2.894531 -0.59375 3.15625 -0.695312 3.375 -0.90625 C 3.601562 -1.113281 3.75 -1.410156 3.8125 -1.796875 L 4.640625 -1.796875 C 4.566406 -1.191406 4.347656 -0.71875 3.984375 -0.375 C 3.617188 -0.03125 3.144531 0.140625 2.5625 0.140625 C 2.101562 0.140625 1.703125 0.0351562 1.359375 -0.171875 C 1.015625 -0.390625 0.75 -0.691406 0.5625 -1.078125 C 0.382812 -1.460938 0.296875 -1.90625 0.296875 -2.40625 C 0.296875 -3.257812 0.507812 -3.941406 0.9375 -4.453125 C 1.363281 -4.972656 1.960938 -5.234375 2.734375 -5.234375 C 3.273438 -5.234375 3.710938 -5.066406 4.046875 -4.734375 C 4.390625 -4.398438 4.585938 -3.945312 4.640625 -3.375 L 3.8125 -3.375 C 3.695312 -4.09375 3.296875 -4.453125 2.609375 -4.453125 Z M 2.609375 -4.453125 "/></g></g></g><g fill="#000000" fill-opacity="1"><g transform="translate(93.772422, 477.309218)"><g><path d="M 4.875 -0.578125 C 4.957031 -0.578125 5.050781 -0.59375 5.15625 -0.625 L 5.15625 0 C 4.957031 0.0625 4.796875 0.09375 4.671875 0.09375 C 4.390625 0.09375 4.171875 0.0351562 4.015625 -0.078125 C 3.867188 -0.203125 3.789062 -0.40625 3.78125 -0.6875 C 3.289062 -0.132812 2.679688 0.140625 1.953125 0.140625 C 1.484375 0.140625 1.097656 0.00390625 0.796875 -0.265625 C 0.492188 -0.535156 0.34375 -0.890625 0.34375 -1.328125 C 0.34375 -1.765625 0.472656 -2.117188 0.734375 -2.390625 C 0.992188 -2.671875 1.378906 -2.847656 1.890625 -2.921875 L 3.296875 -3.09375 C 3.453125 -3.113281 3.566406 -3.164062 3.640625 -3.25 C 3.710938 -3.34375 3.75 -3.488281 3.75 -3.6875 C 3.75 -4.238281 3.351562 -4.515625 2.5625 -4.515625 C 2.207031 -4.515625 1.929688 -4.4375 1.734375 -4.28125 C 1.546875 -4.125 1.429688 -3.875 1.390625 -3.53125 L 0.609375 -3.53125 C 0.617188 -4.082031 0.796875 -4.503906 1.140625 -4.796875 C 1.484375 -5.085938 1.988281 -5.234375 2.65625 -5.234375 C 3.226562 -5.234375 3.691406 -5.113281 4.046875 -4.875 C 4.410156 -4.632812 4.59375 -4.273438 4.59375 -3.796875 L 4.59375 -0.859375 C 4.59375 -0.773438 4.613281 -0.707031 4.65625 -0.65625 C 4.695312 -0.601562 4.769531 -0.578125 4.875 -0.578125 Z M 3.734375 -1.765625 L 3.734375 -2.59375 C 3.648438 -2.53125 3.519531 -2.476562 3.34375 -2.4375 C 3.175781 -2.394531 2.796875 -2.332031 2.203125 -2.25 C 1.890625 -2.207031 1.648438 -2.117188 1.484375 -1.984375 C 1.316406 -1.859375 1.234375 -1.675781 1.234375 -1.4375 C 1.234375 -0.851562 1.539062 -0.5625 2.15625 -0.5625 C 2.425781 -0.5625 2.679688 -0.613281 2.921875 -0.71875 C 3.160156 -0.832031 3.351562 -0.976562 3.5 -1.15625 C 3.65625 -1.34375 3.734375 -1.546875 3.734375 -1.765625 Z M 3.734375 -1.765625 "/></g></g></g><g fill="#000000" fill-opacity="1"><g transform="translate(99.171247, 477.309218)"><g/></g></g><g fill="#000000" fill-opacity="1"><g transform="translate(152.997335, 428.360698)"><g><path d="M -76.40625 -8.1875 L -76.40625 -11.34375 L -20.1875 -11.34375 C -19.894531 -11.632812 -19.65625 -11.867188 -19.46875 -12.046875 C -19.289062 -12.234375 -19.054688 -12.472656 -18.765625 -12.765625 L -18.765625 -57.1875 L 0 -57.1875 L 0 -8.1875 Z M -76.40625 -8.1875 "/></g></g></g><g fill="#000000" fill-opacity="1"><g transform="translate(152.997335, 368.451063)"><g><path d="M -38.203125 -3.171875 C -43.660156 -3.171875 -48.789062 -4.148438 -53.59375 -6.109375 C -58.394531 -8.078125 -62.613281 -10.804688 -66.25 -14.296875 C -69.882812 -17.785156 -72.71875 -21.835938 -74.75 -26.453125 C -76.789062 -31.078125 -77.8125 -36.007812 -77.8125 -41.25 C -77.8125 -46.5625 -76.773438 -51.507812 -74.703125 -56.09375 C -72.628906 -60.675781 -69.789062 -64.710938 -66.1875 -68.203125 C -62.59375 -71.703125 -58.394531 -74.429688 -53.59375 -76.390625 C -48.789062 -78.359375 -43.660156 -79.34375 -38.203125 -79.34375 C -32.742188 -79.34375 -27.613281 -78.359375 -22.8125 -76.390625 C -18.007812 -74.429688 -13.785156 -71.703125 -10.140625 -68.203125 C -6.503906 -64.710938 -3.664062 -60.65625 -1.625 -56.03125 C 0.40625 -51.414062 1.421875 -46.488281 1.421875 -41.25 C 1.421875 -35.9375 0.382812 -30.988281 -1.6875 -26.40625 C -3.757812 -21.820312 -6.597656 -17.785156 -10.203125 -14.296875 C -13.804688 -10.804688 -18.007812 -8.078125 -22.8125 -6.109375 C -27.613281 -4.148438 -32.742188 -3.171875 -38.203125 -3.171875 Z M -59.046875 -41.25 C -59.046875 -36.445312 -58.5 -31.9375 -57.40625 -27.71875 C -56.3125 -23.5 -54.816406 -19.785156 -52.921875 -16.578125 C -51.035156 -13.378906 -48.816406 -10.867188 -46.265625 -9.046875 C -43.722656 -7.234375 -41.035156 -6.328125 -38.203125 -6.328125 C -35.359375 -6.328125 -32.660156 -7.234375 -30.109375 -9.046875 C -27.566406 -10.867188 -25.347656 -13.378906 -23.453125 -16.578125 C -21.566406 -19.785156 -20.078125 -23.5 -18.984375 -27.71875 C -17.898438 -31.9375 -17.359375 -36.445312 -17.359375 -41.25 C -17.359375 -46.050781 -17.898438 -50.5625 -18.984375 -54.78125 C -20.078125 -59.007812 -21.566406 -62.722656 -23.453125 -65.921875 C -25.347656 -69.117188 -27.566406 -71.628906 -30.109375 -73.453125 C -32.660156 -75.273438 -35.359375 -76.1875 -38.203125 -76.1875 C -41.035156 -76.1875 -43.722656 -75.273438 -46.265625 -73.453125 C -48.816406 -71.628906 -51.035156 -69.117188 -52.921875 -65.921875 C -54.816406 -62.722656 -56.3125 -59.007812 -57.40625 -54.78125 C -58.5 -50.5625 -59.046875 -46.050781 -59.046875 -41.25 Z M -59.046875 -41.25 "/></g></g></g><g fill="#000000" fill-opacity="1"><g transform="translate(152.997335, 285.952522)"><g><path d="M -57.625 -29.578125 L -57.625 -2.734375 L -76.40625 -2.734375 L -76.40625 -62.09375 L -57.625 -62.09375 L -57.625 -35.359375 C -57.332031 -35.066406 -57.09375 -34.847656 -56.90625 -34.703125 C -56.726562 -34.554688 -56.53125 -34.335938 -56.3125 -34.046875 L 0 -34.046875 L 0 -30.890625 L -56.3125 -30.890625 C -56.53125 -30.597656 -56.726562 -30.378906 -56.90625 -30.234375 C -57.09375 -30.085938 -57.332031 -29.867188 -57.625 -29.578125 Z M -57.625 -29.578125 "/></g></g></g><g fill="#000000" fill-opacity="1"><g transform="translate(152.997335, 221.132251)"><g><path d="M 0 -8.1875 L -76.40625 -8.1875 L -76.40625 -54.25 L -57.625 -54.25 L -57.625 -12.765625 C -57.332031 -12.472656 -57.09375 -12.234375 -56.90625 -12.046875 C -56.726562 -11.867188 -56.53125 -11.632812 -56.3125 -11.34375 L -43 -11.34375 L -43 -41.46875 L -39.84375 -41.46875 L -39.84375 -11.34375 L -20.1875 -11.34375 C -19.894531 -11.632812 -19.65625 -11.867188 -19.46875 -12.046875 C -19.289062 -12.234375 -19.054688 -12.472656 -18.765625 -12.765625 L -18.765625 -57.625 L 0 -57.625 Z M 0 -8.1875 "/></g></g></g><g fill="#000000" fill-opacity="1"><g transform="translate(152.997335, 156.421096)"><g/></g></g><g fill="#000000" fill-opacity="1"><g transform="translate(152.997335, 118.227344)"><g><path d="M 1.75 -28.265625 C 1.75 -24.992188 1.113281 -21.703125 -0.15625 -18.390625 C -1.4375 -15.078125 -3.382812 -12.054688 -6 -9.328125 C -8.625 -6.597656 -11.9375 -4.398438 -15.9375 -2.734375 L -20.515625 -18.4375 C -15.273438 -20.332031 -11.5625 -22.953125 -9.375 -26.296875 C -7.195312 -29.648438 -6.109375 -32.925781 -6.109375 -36.125 C -6.109375 -39.539062 -7 -42.300781 -8.78125 -44.40625 C -10.5625 -46.519531 -12.796875 -47.882812 -15.484375 -48.5 C -18.179688 -49.125 -20.859375 -48.945312 -23.515625 -47.96875 C -26.171875 -46.988281 -28.390625 -45.148438 -30.171875 -42.453125 C -31.953125 -39.765625 -32.84375 -36.164062 -32.84375 -31.65625 L -47.578125 -31.65625 C -47.941406 -35.875 -48.925781 -39.164062 -50.53125 -41.53125 C -52.132812 -43.894531 -54.007812 -45.441406 -56.15625 -46.171875 C -58.300781 -46.898438 -60.390625 -46.953125 -62.421875 -46.328125 C -64.460938 -45.710938 -66.171875 -44.53125 -67.546875 -42.78125 C -68.929688 -41.03125 -69.625 -38.882812 -69.625 -36.34375 C -69.625 -33.363281 -68.53125 -30.269531 -66.34375 -27.0625 C -64.164062 -23.863281 -60.492188 -21.390625 -55.328125 -19.640625 L -59.921875 -3.921875 C -64.066406 -5.597656 -67.445312 -7.765625 -70.0625 -10.421875 C -72.6875 -13.078125 -74.632812 -15.988281 -75.90625 -19.15625 C -77.175781 -22.320312 -77.8125 -25.46875 -77.8125 -28.59375 C -77.8125 -33.03125 -77.046875 -36.722656 -75.515625 -39.671875 C -73.992188 -42.617188 -71.992188 -44.925781 -69.515625 -46.59375 C -67.046875 -48.269531 -64.351562 -49.328125 -61.4375 -49.765625 C -58.53125 -50.203125 -55.675781 -50.09375 -52.875 -49.4375 C -50.070312 -48.78125 -47.5625 -47.632812 -45.34375 -46 C -43.125 -44.363281 -41.503906 -42.3125 -40.484375 -39.84375 C -39.472656 -42.675781 -37.75 -45.054688 -35.3125 -46.984375 C -32.875 -48.910156 -30.050781 -50.3125 -26.84375 -51.1875 C -23.644531 -52.0625 -20.390625 -52.296875 -17.078125 -51.890625 C -13.765625 -51.492188 -10.671875 -50.40625 -7.796875 -48.625 C -4.929688 -46.84375 -2.625 -44.273438 -0.875 -40.921875 C 0.875 -37.578125 1.75 -33.359375 1.75 -28.265625 Z M 1.75 -28.265625 "/></g></g></g><g fill="#000000" fill-opacity="1"><g transform="translate(152.997335, 63.446579)"><g><path d="M -55.328125 -20.84375 L -60.03125 -5.125 C -64.175781 -6.800781 -67.554688 -8.984375 -70.171875 -11.671875 C -72.796875 -14.367188 -74.722656 -17.316406 -75.953125 -20.515625 C -77.191406 -23.722656 -77.8125 -26.890625 -77.8125 -30.015625 C -77.8125 -33.429688 -77.140625 -36.628906 -75.796875 -39.609375 C -74.453125 -42.597656 -72.503906 -45 -69.953125 -46.8125 C -67.410156 -48.632812 -64.320312 -49.546875 -60.6875 -49.546875 C -57.40625 -49.546875 -53.960938 -48.925781 -50.359375 -47.6875 C -46.765625 -46.457031 -43.109375 -44.894531 -39.390625 -43 C -35.679688 -41.101562 -32.046875 -39.0625 -28.484375 -36.875 C -24.921875 -34.695312 -21.535156 -32.660156 -18.328125 -30.765625 C -15.128906 -28.878906 -12.238281 -27.316406 -9.65625 -26.078125 C -7.070312 -24.847656 -4.910156 -24.234375 -3.171875 -24.234375 L -3.171875 -49.546875 L 0 -49.546875 L 0 -5.453125 C -4 -5.453125 -7.835938 -6.429688 -11.515625 -8.390625 C -15.191406 -10.359375 -18.753906 -12.90625 -22.203125 -16.03125 C -25.660156 -19.164062 -29.023438 -22.460938 -32.296875 -25.921875 C -35.578125 -29.378906 -38.800781 -32.671875 -41.96875 -35.796875 C -45.132812 -38.921875 -48.257812 -41.46875 -51.34375 -43.4375 C -54.4375 -45.40625 -57.550781 -46.390625 -60.6875 -46.390625 C -63.664062 -46.390625 -65.953125 -45.492188 -67.546875 -43.703125 C -69.148438 -41.921875 -69.953125 -39.757812 -69.953125 -37.21875 C -69.953125 -34.375 -68.804688 -31.40625 -66.515625 -28.3125 C -64.222656 -25.226562 -60.492188 -22.738281 -55.328125 -20.84375 Z M -55.328125 -20.84375 "/></g></g></g><g clip-path="url(#62acac3db5)"><g clip-path="url(#d0aa135f2e)"><g clip-path="url(#832c68ebd6)"><g clip-path="url(#51318daa4a)"><path fill="#1a1a1a" d="M 133.359375 301.921875 C 132.910156 302 132.605469 302.429688 132.683594 302.875 C 134.472656 313.277344 132.113281 324.28125 126.203125 333.070312 C 120.296875 341.855469 110.976562 348.230469 100.632812 350.554688 C 100.183594 350.652344 99.902344 351.09375 100.003906 351.539062 C 100.101562 351.984375 100.542969 352.261719 100.992188 352.164062 C 103.507812 351.597656 105.964844 350.800781 108.332031 349.796875 C 116.085938 346.507812 122.875 340.980469 127.578125 333.984375 C 133.722656 324.847656 136.175781 313.40625 134.316406 302.59375 C 134.238281 302.144531 133.8125 301.84375 133.359375 301.921875 Z M 133.359375 301.921875 " fill-opacity="1" fill-rule="nonzero"/></g></g></g></g><g fill="#000000" fill-opacity="1"><g transform="translate(34.370731, 458.273712)"><g><path d="M 4.84375 -8.3125 C 4.238281 -8.3125 3.710938 -8.160156 3.265625 -7.859375 C 2.816406 -7.566406 2.46875 -7.144531 2.21875 -6.59375 C 1.96875 -6.050781 1.84375 -5.410156 1.84375 -4.671875 C 1.84375 -3.398438 2.097656 -2.445312 2.609375 -1.8125 C 3.128906 -1.175781 3.878906 -0.859375 4.859375 -0.859375 C 5.523438 -0.859375 6.097656 -1.082031 6.578125 -1.53125 C 7.054688 -1.976562 7.363281 -2.59375 7.5 -3.375 L 8.6875 -3.375 C 8.59375 -2.625 8.359375 -1.972656 7.984375 -1.421875 C 7.617188 -0.878906 7.15625 -0.460938 6.59375 -0.171875 C 6.03125 0.109375 5.398438 0.25 4.703125 0.25 C 3.878906 0.25 3.15625 0.0546875 2.53125 -0.328125 C 1.90625 -0.710938 1.421875 -1.269531 1.078125 -2 C 0.734375 -2.738281 0.5625 -3.613281 0.5625 -4.625 C 0.5625 -5.570312 0.734375 -6.40625 1.078125 -7.125 C 1.429688 -7.851562 1.929688 -8.414062 2.578125 -8.8125 C 3.222656 -9.207031 3.976562 -9.40625 4.84375 -9.40625 C 5.507812 -9.40625 6.113281 -9.28125 6.65625 -9.03125 C 7.195312 -8.789062 7.632812 -8.441406 7.96875 -7.984375 C 8.3125 -7.535156 8.523438 -7.007812 8.609375 -6.40625 L 7.40625 -6.40625 C 7.28125 -7.019531 6.992188 -7.488281 6.546875 -7.8125 C 6.109375 -8.144531 5.539062 -8.3125 4.84375 -8.3125 Z M 4.84375 -8.3125 "/></g></g></g><g fill="#000000" fill-opacity="1"><g transform="translate(48.316934, 458.273712)"><g><path d="M 7 0 L 6.09375 -2.671875 L 2.40625 -2.671875 L 1.453125 0 L 0.171875 0 L 3.625 -9.171875 L 5.03125 -9.171875 L 8.34375 0 Z M 5.640625 -3.765625 L 4.296875 -7.796875 L 4.265625 -7.796875 L 2.796875 -3.765625 Z M 5.640625 -3.765625 "/></g></g></g><g fill="#000000" fill-opacity="1"><g transform="translate(61.561503, 458.273712)"><g><path d="M 2.34375 -8.0625 L 2.34375 -5.265625 L 6.828125 -5.265625 L 6.828125 -4.15625 L 2.34375 -4.15625 L 2.34375 0 L 1.09375 0 L 1.09375 -9.171875 L 7.4375 -9.171875 L 7.4375 -8.0625 Z M 2.34375 -8.0625 "/></g></g></g><g fill="#000000" fill-opacity="1"><g transform="translate(74.091685, 458.273712)"><g><path d="M 2.34375 -8.0625 L 2.34375 -5.265625 L 7.359375 -5.265625 L 7.359375 -4.15625 L 2.34375 -4.15625 L 2.34375 -1.09375 L 7.859375 -1.09375 L 7.859375 0 L 1.09375 0 L 1.09375 -9.171875 L 7.78125 -9.171875 L 7.78125 -8.0625 Z M 3.6875 -10.0625 L 4.8125 -11.859375 L 6.203125 -11.859375 L 4.53125 -10.0625 Z M 3.6875 -10.0625 "/></g></g></g><g fill="#000000" fill-opacity="1"><g transform="translate(87.336254, 458.273712)"><g/></g></g><g fill="#000000" fill-opacity="1"><g transform="translate(95.618337, 458.273712)"><g><path d="M 8.828125 -6.390625 L 7.640625 -6.390625 C 7.484375 -6.992188 7.171875 -7.460938 6.703125 -7.796875 C 6.242188 -8.140625 5.640625 -8.3125 4.890625 -8.3125 C 4.304688 -8.3125 3.785156 -8.15625 3.328125 -7.84375 C 2.878906 -7.53125 2.523438 -7.09375 2.265625 -6.53125 C 2.015625 -5.96875 1.890625 -5.320312 1.890625 -4.59375 C 1.890625 -3.363281 2.148438 -2.425781 2.671875 -1.78125 C 3.191406 -1.132812 3.9375 -0.8125 4.90625 -0.8125 C 5.789062 -0.8125 6.5 -1.0625 7.03125 -1.5625 C 7.5625 -2.070312 7.828125 -2.800781 7.828125 -3.75 L 7.828125 -3.84375 L 4.96875 -3.84375 L 4.96875 -4.90625 L 8.984375 -4.90625 L 8.984375 0 L 8.1875 0 L 7.890625 -1.1875 C 7.578125 -0.738281 7.148438 -0.382812 6.609375 -0.125 C 6.066406 0.125 5.476562 0.25 4.84375 0.25 C 3.945312 0.25 3.179688 0.046875 2.546875 -0.359375 C 1.910156 -0.773438 1.425781 -1.34375 1.09375 -2.0625 C 0.769531 -2.78125 0.609375 -3.59375 0.609375 -4.5 C 0.609375 -5.457031 0.785156 -6.304688 1.140625 -7.046875 C 1.503906 -7.785156 2.015625 -8.363281 2.671875 -8.78125 C 3.328125 -9.195312 4.085938 -9.40625 4.953125 -9.40625 C 5.597656 -9.40625 6.203125 -9.28125 6.765625 -9.03125 C 7.335938 -8.78125 7.804688 -8.425781 8.171875 -7.96875 C 8.546875 -7.507812 8.765625 -6.984375 8.828125 -6.390625 Z M 8.828125 -6.390625 "/></g></g></g><g fill="#000000" fill-opacity="1"><g transform="translate(110.278939, 458.273712)"><g><path d="M 4.984375 0.25 C 4.023438 0.25 3.207031 0.03125 2.53125 -0.40625 C 1.851562 -0.84375 1.34375 -1.425781 1 -2.15625 C 0.664062 -2.882812 0.5 -3.691406 0.5 -4.578125 C 0.5 -5.460938 0.664062 -6.269531 1 -7 C 1.34375 -7.738281 1.851562 -8.320312 2.53125 -8.75 C 3.207031 -9.1875 4.019531 -9.40625 4.96875 -9.40625 C 5.9375 -9.40625 6.753906 -9.179688 7.421875 -8.734375 C 8.097656 -8.285156 8.601562 -7.691406 8.9375 -6.953125 C 9.269531 -6.210938 9.4375 -5.421875 9.4375 -4.578125 C 9.4375 -3.703125 9.265625 -2.894531 8.921875 -2.15625 C 8.578125 -1.425781 8.066406 -0.84375 7.390625 -0.40625 C 6.722656 0.03125 5.921875 0.25 4.984375 0.25 Z M 8.15625 -4.578125 C 8.15625 -5.316406 8.019531 -5.96875 7.75 -6.53125 C 7.488281 -7.09375 7.113281 -7.53125 6.625 -7.84375 C 6.132812 -8.15625 5.578125 -8.3125 4.953125 -8.3125 C 4.328125 -8.3125 3.773438 -8.148438 3.296875 -7.828125 C 2.816406 -7.515625 2.441406 -7.078125 2.171875 -6.515625 C 1.910156 -5.960938 1.78125 -5.316406 1.78125 -4.578125 C 1.78125 -3.847656 1.910156 -3.195312 2.171875 -2.625 C 2.429688 -2.0625 2.800781 -1.625 3.28125 -1.3125 C 3.769531 -1.007812 4.332031 -0.859375 4.96875 -0.859375 C 5.59375 -0.859375 6.144531 -1.015625 6.625 -1.328125 C 7.113281 -1.640625 7.488281 -2.078125 7.75 -2.640625 C 8.019531 -3.203125 8.15625 -3.847656 8.15625 -4.578125 Z M 8.15625 -4.578125 "/></g></g></g><g fill="#000000" fill-opacity="1"><g transform="translate(124.939542, 458.273712)"><g><path d="M 4.5625 -0.859375 C 5.320312 -0.859375 5.914062 -1.070312 6.34375 -1.5 C 6.769531 -1.9375 6.984375 -2.539062 6.984375 -3.3125 L 6.984375 -9.171875 L 8.21875 -9.171875 L 8.21875 -3.25 C 8.21875 -2.5625 8.078125 -1.957031 7.796875 -1.4375 C 7.515625 -0.914062 7.097656 -0.503906 6.546875 -0.203125 C 5.992188 0.0976562 5.320312 0.25 4.53125 0.25 C 3.789062 0.25 3.15625 0.109375 2.625 -0.171875 C 2.101562 -0.453125 1.703125 -0.84375 1.421875 -1.34375 C 1.148438 -1.84375 1.015625 -2.414062 1.015625 -3.0625 L 1.015625 -9.171875 L 2.25 -9.171875 L 2.25 -3.34375 C 2.25 -2.5625 2.445312 -1.953125 2.84375 -1.515625 C 3.25 -1.078125 3.820312 -0.859375 4.5625 -0.859375 Z M 4.5625 -0.859375 "/></g></g></g><g fill="#000000" fill-opacity="1"><g transform="translate(138.885744, 458.273712)"><g><path d="M 8.375 -6.703125 C 8.375 -6.171875 8.273438 -5.734375 8.078125 -5.390625 C 7.878906 -5.054688 7.550781 -4.757812 7.09375 -4.5 C 7.382812 -4.394531 7.601562 -4.269531 7.75 -4.125 C 7.90625 -3.976562 8.015625 -3.773438 8.078125 -3.515625 C 8.148438 -3.253906 8.195312 -2.859375 8.21875 -2.328125 L 8.28125 -0.84375 C 8.289062 -0.570312 8.441406 -0.359375 8.734375 -0.203125 L 8.734375 0 L 7.21875 0 C 7.164062 -0.1875 7.113281 -0.488281 7.0625 -0.90625 C 7.019531 -1.320312 7 -1.8125 7 -2.375 C 7 -2.9375 6.859375 -3.335938 6.578125 -3.578125 C 6.304688 -3.816406 5.914062 -3.9375 5.40625 -3.9375 L 2.359375 -3.9375 L 2.359375 0 L 1.125 0 L 1.125 -9.171875 L 5.359375 -9.171875 C 6.304688 -9.171875 7.046875 -8.960938 7.578125 -8.546875 C 8.109375 -8.128906 8.375 -7.515625 8.375 -6.703125 Z M 7.09375 -6.578125 C 7.09375 -7.597656 6.566406 -8.109375 5.515625 -8.109375 L 2.359375 -8.109375 L 2.359375 -4.984375 L 5.28125 -4.984375 C 6.488281 -4.984375 7.09375 -5.515625 7.09375 -6.578125 Z M 7.09375 -6.578125 "/></g></g></g><g fill="#000000" fill-opacity="1"><g transform="translate(152.831947, 458.273712)"><g><path d="M 5.34375 -1.421875 L 7.953125 -9.171875 L 9.71875 -9.171875 L 9.71875 0 L 8.515625 0 L 8.515625 -5.46875 L 8.53125 -7.171875 C 8.539062 -7.285156 8.546875 -7.460938 8.546875 -7.703125 L 8.515625 -7.703125 L 5.9375 0 L 4.703125 0 L 2.125 -7.6875 L 2.109375 -7.6875 C 2.117188 -6.75 2.125 -6.007812 2.125 -5.46875 L 2.125 0 L 0.9375 0 L 0.9375 -9.171875 L 2.703125 -9.171875 L 5.328125 -1.421875 Z M 5.34375 -1.421875 "/></g></g></g><g fill="#000000" fill-opacity="1"><g transform="translate(168.194183, 458.273712)"><g><path d="M 2.34375 -8.0625 L 2.34375 -5.265625 L 7.359375 -5.265625 L 7.359375 -4.15625 L 2.34375 -4.15625 L 2.34375 -1.09375 L 7.859375 -1.09375 L 7.859375 0 L 1.09375 0 L 1.09375 -9.171875 L 7.78125 -9.171875 L 7.78125 -8.0625 Z M 2.34375 -8.0625 "/></g></g></g><g fill="#000000" fill-opacity="1"><g transform="translate(181.438752, 458.273712)"><g><path d="M 4.515625 -8.0625 L 4.515625 0 L 3.28125 0 L 3.28125 -8.0625 L 0.171875 -8.0625 L 0.171875 -9.171875 L 7.625 -9.171875 L 7.625 -8.0625 Z M 4.515625 -8.0625 "/></g></g></g><g fill="#000000" fill-opacity="1"><g transform="translate(39.053756, 495.169112)"><g><path d="M 3.6875 -6.328125 C 3.226562 -6.328125 2.828125 -6.210938 2.484375 -5.984375 C 2.140625 -5.765625 1.875 -5.445312 1.6875 -5.03125 C 1.5 -4.613281 1.40625 -4.125 1.40625 -3.5625 C 1.40625 -2.59375 1.597656 -1.863281 1.984375 -1.375 C 2.378906 -0.894531 2.953125 -0.65625 3.703125 -0.65625 C 4.203125 -0.65625 4.632812 -0.820312 5 -1.15625 C 5.363281 -1.5 5.597656 -1.96875 5.703125 -2.5625 L 6.625 -2.5625 C 6.539062 -1.988281 6.359375 -1.492188 6.078125 -1.078125 C 5.804688 -0.671875 5.453125 -0.359375 5.015625 -0.140625 C 4.585938 0.078125 4.113281 0.1875 3.59375 0.1875 C 2.957031 0.1875 2.398438 0.0390625 1.921875 -0.25 C 1.453125 -0.539062 1.082031 -0.960938 0.8125 -1.515625 C 0.550781 -2.078125 0.421875 -2.742188 0.421875 -3.515625 C 0.421875 -4.242188 0.550781 -4.882812 0.8125 -5.4375 C 1.082031 -5.988281 1.460938 -6.410156 1.953125 -6.703125 C 2.453125 -7.003906 3.03125 -7.15625 3.6875 -7.15625 C 4.195312 -7.15625 4.65625 -7.0625 5.0625 -6.875 C 5.476562 -6.6875 5.816406 -6.421875 6.078125 -6.078125 C 6.335938 -5.734375 6.492188 -5.332031 6.546875 -4.875 L 5.640625 -4.875 C 5.535156 -5.34375 5.316406 -5.703125 4.984375 -5.953125 C 4.648438 -6.203125 4.21875 -6.328125 3.6875 -6.328125 Z M 3.6875 -6.328125 "/></g></g></g><g fill="#000000" fill-opacity="1"><g transform="translate(46.060886, 495.169112)"><g><path d="M 4.875 -0.578125 C 4.957031 -0.578125 5.050781 -0.59375 5.15625 -0.625 L 5.15625 0 C 4.957031 0.0625 4.796875 0.09375 4.671875 0.09375 C 4.390625 0.09375 4.171875 0.0351562 4.015625 -0.078125 C 3.867188 -0.203125 3.789062 -0.40625 3.78125 -0.6875 C 3.289062 -0.132812 2.679688 0.140625 1.953125 0.140625 C 1.484375 0.140625 1.097656 0.00390625 0.796875 -0.265625 C 0.492188 -0.535156 0.34375 -0.890625 0.34375 -1.328125 C 0.34375 -1.765625 0.472656 -2.117188 0.734375 -2.390625 C 0.992188 -2.671875 1.378906 -2.847656 1.890625 -2.921875 L 3.296875 -3.09375 C 3.453125 -3.113281 3.566406 -3.164062 3.640625 -3.25 C 3.710938 -3.34375 3.75 -3.488281 3.75 -3.6875 C 3.75 -4.238281 3.351562 -4.515625 2.5625 -4.515625 C 2.207031 -4.515625 1.929688 -4.4375 1.734375 -4.28125 C 1.546875 -4.125 1.429688 -3.875 1.390625 -3.53125 L 0.609375 -3.53125 C 0.617188 -4.082031 0.796875 -4.503906 1.140625 -4.796875 C 1.484375 -5.085938 1.988281 -5.234375 2.65625 -5.234375 C 3.226562 -5.234375 3.691406 -5.113281 4.046875 -4.875 C 4.410156 -4.632812 4.59375 -4.273438 4.59375 -3.796875 L 4.59375 -0.859375 C 4.59375 -0.773438 4.613281 -0.707031 4.65625 -0.65625 C 4.695312 -0.601562 4.769531 -0.578125 4.875 -0.578125 Z M 3.734375 -1.765625 L 3.734375 -2.59375 C 3.648438 -2.53125 3.519531 -2.476562 3.34375 -2.4375 C 3.175781 -2.394531 2.796875 -2.332031 2.203125 -2.25 C 1.890625 -2.207031 1.648438 -2.117188 1.484375 -1.984375 C 1.316406 -1.859375 1.234375 -1.675781 1.234375 -1.4375 C 1.234375 -0.851562 1.539062 -0.5625 2.15625 -0.5625 C 2.425781 -0.5625 2.679688 -0.613281 2.921875 -0.71875 C 3.160156 -0.832031 3.351562 -0.976562 3.5 -1.15625 C 3.65625 -1.34375 3.734375 -1.546875 3.734375 -1.765625 Z M 3.734375 -1.765625 "/></g></g></g><g fill="#000000" fill-opacity="1"><g transform="translate(51.45696, 495.169112)"><g><path d="M 2.203125 -6.3125 C 2.015625 -6.3125 1.878906 -6.265625 1.796875 -6.171875 C 1.722656 -6.078125 1.6875 -5.9375 1.6875 -5.75 L 1.6875 -5.078125 L 2.546875 -5.078125 L 2.546875 -4.375 L 1.6875 -4.375 L 1.6875 0 L 0.828125 0 L 0.828125 -4.375 L 0.140625 -4.375 L 0.140625 -5.078125 L 0.828125 -5.078125 L 0.828125 -5.984375 C 0.828125 -6.335938 0.9375 -6.609375 1.15625 -6.796875 C 1.382812 -6.984375 1.71875 -7.078125 2.15625 -7.078125 C 2.195312 -7.078125 2.328125 -7.070312 2.546875 -7.0625 L 2.546875 -6.28125 C 2.398438 -6.300781 2.285156 -6.3125 2.203125 -6.3125 Z M 2.203125 -6.3125 "/></g></g></g><g fill="#000000" fill-opacity="1"><g transform="translate(54.154991, 495.169112)"><g><path d="M 2.78125 -0.59375 C 3 -0.59375 3.203125 -0.640625 3.390625 -0.734375 C 3.585938 -0.828125 3.75 -0.953125 3.875 -1.109375 C 4 -1.265625 4.070312 -1.425781 4.09375 -1.59375 L 4.953125 -1.59375 C 4.828125 -1.050781 4.578125 -0.625 4.203125 -0.3125 C 3.828125 -0.0078125 3.332031 0.140625 2.71875 0.140625 C 2.21875 0.140625 1.789062 0.03125 1.4375 -0.1875 C 1.09375 -0.40625 0.832031 -0.707031 0.65625 -1.09375 C 0.476562 -1.476562 0.390625 -1.914062 0.390625 -2.40625 C 0.390625 -3.269531 0.597656 -3.957031 1.015625 -4.46875 C 1.441406 -4.976562 2.046875 -5.234375 2.828125 -5.234375 C 3.523438 -5.234375 4.0625 -4.972656 4.4375 -4.453125 C 4.820312 -3.929688 5.015625 -3.203125 5.015625 -2.265625 L 1.296875 -2.265625 C 1.296875 -1.722656 1.421875 -1.304688 1.671875 -1.015625 C 1.921875 -0.734375 2.289062 -0.59375 2.78125 -0.59375 Z M 2.71875 -4.453125 C 2.46875 -4.453125 2.234375 -4.382812 2.015625 -4.25 C 1.804688 -4.113281 1.632812 -3.929688 1.5 -3.703125 C 1.363281 -3.472656 1.296875 -3.21875 1.296875 -2.9375 L 4.125 -2.9375 C 4.050781 -3.945312 3.582031 -4.453125 2.71875 -4.453125 Z M 2.28125 -5.765625 L 3.140625 -7.140625 L 4.1875 -7.140625 L 2.9375 -5.765625 Z M 2.28125 -5.765625 "/></g></g></g><g fill="#000000" fill-opacity="1"><g transform="translate(59.551065, 495.169112)"><g/></g></g><g fill="#000000" fill-opacity="1"><g transform="translate(62.249096, 495.169112)"><g><path d="M 4.046875 0 L 4.046875 -0.703125 L 4.03125 -0.703125 C 3.738281 -0.140625 3.25 0.140625 2.5625 0.140625 C 2.082031 0.140625 1.675781 0.015625 1.34375 -0.234375 C 1.007812 -0.484375 0.757812 -0.820312 0.59375 -1.25 C 0.425781 -1.675781 0.34375 -2.15625 0.34375 -2.6875 C 0.34375 -3.1875 0.425781 -3.628906 0.59375 -4.015625 C 0.769531 -4.398438 1.019531 -4.695312 1.34375 -4.90625 C 1.664062 -5.125 2.035156 -5.234375 2.453125 -5.234375 C 2.773438 -5.234375 3.054688 -5.164062 3.296875 -5.03125 C 3.535156 -4.894531 3.757812 -4.671875 3.96875 -4.359375 L 4 -4.359375 L 4 -6.984375 L 4.84375 -6.984375 L 4.84375 0 Z M 2.59375 -0.59375 C 3 -0.59375 3.332031 -0.742188 3.59375 -1.046875 C 3.851562 -1.347656 3.984375 -1.765625 3.984375 -2.296875 C 3.984375 -3.015625 3.867188 -3.550781 3.640625 -3.90625 C 3.410156 -4.269531 3.066406 -4.453125 2.609375 -4.453125 C 1.679688 -4.453125 1.21875 -3.84375 1.21875 -2.625 C 1.21875 -1.976562 1.335938 -1.476562 1.578125 -1.125 C 1.816406 -0.769531 2.15625 -0.59375 2.59375 -0.59375 Z M 2.59375 -0.59375 "/></g></g></g><g fill="#000000" fill-opacity="1"><g transform="translate(67.645169, 495.169112)"><g><path d="M 2.78125 -0.59375 C 3 -0.59375 3.203125 -0.640625 3.390625 -0.734375 C 3.585938 -0.828125 3.75 -0.953125 3.875 -1.109375 C 4 -1.265625 4.070312 -1.425781 4.09375 -1.59375 L 4.953125 -1.59375 C 4.828125 -1.050781 4.578125 -0.625 4.203125 -0.3125 C 3.828125 -0.0078125 3.332031 0.140625 2.71875 0.140625 C 2.21875 0.140625 1.789062 0.03125 1.4375 -0.1875 C 1.09375 -0.40625 0.832031 -0.707031 0.65625 -1.09375 C 0.476562 -1.476562 0.390625 -1.914062 0.390625 -2.40625 C 0.390625 -3.269531 0.597656 -3.957031 1.015625 -4.46875 C 1.441406 -4.976562 2.046875 -5.234375 2.828125 -5.234375 C 3.523438 -5.234375 4.0625 -4.972656 4.4375 -4.453125 C 4.820312 -3.929688 5.015625 -3.203125 5.015625 -2.265625 L 1.296875 -2.265625 C 1.296875 -1.722656 1.421875 -1.304688 1.671875 -1.015625 C 1.921875 -0.734375 2.289062 -0.59375 2.78125 -0.59375 Z M 2.71875 -4.453125 C 2.46875 -4.453125 2.234375 -4.382812 2.015625 -4.25 C 1.804688 -4.113281 1.632812 -3.929688 1.5 -3.703125 C 1.363281 -3.472656 1.296875 -3.21875 1.296875 -2.9375 L 4.125 -2.9375 C 4.050781 -3.945312 3.582031 -4.453125 2.71875 -4.453125 Z M 2.71875 -4.453125 "/></g></g></g><g fill="#000000" fill-opacity="1"><g transform="translate(73.041243, 495.169112)"><g/></g></g><g fill="#000000" fill-opacity="1"><g transform="translate(75.739274, 495.169112)"><g><path d="M 3.6875 -6.328125 C 3.226562 -6.328125 2.828125 -6.210938 2.484375 -5.984375 C 2.140625 -5.765625 1.875 -5.445312 1.6875 -5.03125 C 1.5 -4.613281 1.40625 -4.125 1.40625 -3.5625 C 1.40625 -2.59375 1.597656 -1.863281 1.984375 -1.375 C 2.378906 -0.894531 2.953125 -0.65625 3.703125 -0.65625 C 4.203125 -0.65625 4.632812 -0.820312 5 -1.15625 C 5.363281 -1.5 5.597656 -1.96875 5.703125 -2.5625 L 6.625 -2.5625 C 6.539062 -1.988281 6.359375 -1.492188 6.078125 -1.078125 C 5.804688 -0.671875 5.453125 -0.359375 5.015625 -0.140625 C 4.585938 0.078125 4.113281 0.1875 3.59375 0.1875 C 2.957031 0.1875 2.398438 0.0390625 1.921875 -0.25 C 1.453125 -0.539062 1.082031 -0.960938 0.8125 -1.515625 C 0.550781 -2.078125 0.421875 -2.742188 0.421875 -3.515625 C 0.421875 -4.242188 0.550781 -4.882812 0.8125 -5.4375 C 1.082031 -5.988281 1.460938 -6.410156 1.953125 -6.703125 C 2.453125 -7.003906 3.03125 -7.15625 3.6875 -7.15625 C 4.195312 -7.15625 4.65625 -7.0625 5.0625 -6.875 C 5.476562 -6.6875 5.816406 -6.421875 6.078125 -6.078125 C 6.335938 -5.734375 6.492188 -5.332031 6.546875 -4.875 L 5.640625 -4.875 C 5.535156 -5.34375 5.316406 -5.703125 4.984375 -5.953125 C 4.648438 -6.203125 4.21875 -6.328125 3.6875 -6.328125 Z M 3.6875 -6.328125 "/></g></g></g><g fill="#000000" fill-opacity="1"><g transform="translate(82.746404, 495.169112)"><g><path d="M 2.71875 0.140625 C 2.21875 0.140625 1.785156 0.0195312 1.421875 -0.21875 C 1.066406 -0.457031 0.796875 -0.78125 0.609375 -1.1875 C 0.429688 -1.59375 0.34375 -2.046875 0.34375 -2.546875 C 0.34375 -3.054688 0.4375 -3.515625 0.625 -3.921875 C 0.8125 -4.328125 1.082031 -4.644531 1.4375 -4.875 C 1.800781 -5.113281 2.222656 -5.234375 2.703125 -5.234375 C 3.191406 -5.234375 3.613281 -5.113281 3.96875 -4.875 C 4.332031 -4.632812 4.601562 -4.304688 4.78125 -3.890625 C 4.96875 -3.484375 5.0625 -3.035156 5.0625 -2.546875 C 5.0625 -2.046875 4.96875 -1.585938 4.78125 -1.171875 C 4.59375 -0.765625 4.320312 -0.441406 3.96875 -0.203125 C 3.613281 0.0234375 3.195312 0.140625 2.71875 0.140625 Z M 4.171875 -2.515625 C 4.171875 -3.085938 4.046875 -3.554688 3.796875 -3.921875 C 3.546875 -4.296875 3.175781 -4.484375 2.6875 -4.484375 C 2.226562 -4.484375 1.867188 -4.300781 1.609375 -3.9375 C 1.347656 -3.582031 1.21875 -3.117188 1.21875 -2.546875 C 1.21875 -1.984375 1.347656 -1.519531 1.609375 -1.15625 C 1.867188 -0.789062 2.234375 -0.609375 2.703125 -0.609375 C 3.179688 -0.609375 3.546875 -0.789062 3.796875 -1.15625 C 4.046875 -1.519531 4.171875 -1.972656 4.171875 -2.515625 Z M 4.171875 -2.515625 "/></g></g></g><g fill="#000000" fill-opacity="1"><g transform="translate(88.142477, 495.169112)"><g><path d="M 0.65625 0 L 0.65625 -6.984375 L 1.5 -6.984375 L 1.5 0 Z M 0.65625 0 "/></g></g></g><g fill="#000000" fill-opacity="1"><g transform="translate(90.297027, 495.169112)"><g><path d="M 2.71875 0.140625 C 2.21875 0.140625 1.785156 0.0195312 1.421875 -0.21875 C 1.066406 -0.457031 0.796875 -0.78125 0.609375 -1.1875 C 0.429688 -1.59375 0.34375 -2.046875 0.34375 -2.546875 C 0.34375 -3.054688 0.4375 -3.515625 0.625 -3.921875 C 0.8125 -4.328125 1.082031 -4.644531 1.4375 -4.875 C 1.800781 -5.113281 2.222656 -5.234375 2.703125 -5.234375 C 3.191406 -5.234375 3.613281 -5.113281 3.96875 -4.875 C 4.332031 -4.632812 4.601562 -4.304688 4.78125 -3.890625 C 4.96875 -3.484375 5.0625 -3.035156 5.0625 -2.546875 C 5.0625 -2.046875 4.96875 -1.585938 4.78125 -1.171875 C 4.59375 -0.765625 4.320312 -0.441406 3.96875 -0.203125 C 3.613281 0.0234375 3.195312 0.140625 2.71875 0.140625 Z M 4.171875 -2.515625 C 4.171875 -3.085938 4.046875 -3.554688 3.796875 -3.921875 C 3.546875 -4.296875 3.175781 -4.484375 2.6875 -4.484375 C 2.226562 -4.484375 1.867188 -4.300781 1.609375 -3.9375 C 1.347656 -3.582031 1.21875 -3.117188 1.21875 -2.546875 C 1.21875 -1.984375 1.347656 -1.519531 1.609375 -1.15625 C 1.867188 -0.789062 2.234375 -0.609375 2.703125 -0.609375 C 3.179688 -0.609375 3.546875 -0.789062 3.796875 -1.15625 C 4.046875 -1.519531 4.171875 -1.972656 4.171875 -2.515625 Z M 4.171875 -2.515625 "/></g></g></g><g fill="#000000" fill-opacity="1"><g transform="translate(95.6931, 495.169112)"><g><path d="M 4.34375 -4.40625 C 4.613281 -4.726562 4.863281 -4.945312 5.09375 -5.0625 C 5.320312 -5.175781 5.578125 -5.234375 5.859375 -5.234375 C 6.347656 -5.234375 6.738281 -5.082031 7.03125 -4.78125 C 7.320312 -4.476562 7.46875 -4.070312 7.46875 -3.5625 L 7.46875 0 L 6.625 0 L 6.625 -3.265625 C 6.625 -3.671875 6.550781 -3.96875 6.40625 -4.15625 C 6.257812 -4.351562 6.015625 -4.453125 5.671875 -4.453125 C 5.453125 -4.453125 5.25 -4.390625 5.0625 -4.265625 C 4.882812 -4.140625 4.742188 -3.972656 4.640625 -3.765625 C 4.535156 -3.554688 4.484375 -3.328125 4.484375 -3.078125 L 4.484375 0 L 3.625 0 L 3.625 -3.515625 C 3.625 -3.804688 3.550781 -4.035156 3.40625 -4.203125 C 3.269531 -4.367188 3.078125 -4.453125 2.828125 -4.453125 C 2.421875 -4.453125 2.09375 -4.300781 1.84375 -4 C 1.601562 -3.707031 1.484375 -3.3125 1.484375 -2.8125 L 1.484375 0 L 0.625 0 L 0.625 -5.078125 L 1.4375 -5.078125 L 1.4375 -4.359375 L 1.453125 -4.359375 C 1.847656 -4.941406 2.363281 -5.234375 3 -5.234375 C 3.289062 -5.234375 3.550781 -5.164062 3.78125 -5.03125 C 4.019531 -4.894531 4.207031 -4.6875 4.34375 -4.40625 Z M 4.34375 -4.40625 "/></g></g></g><g fill="#000000" fill-opacity="1"><g transform="translate(103.777499, 495.169112)"><g><path d="M 1.4375 -4.4375 C 1.800781 -4.96875 2.296875 -5.234375 2.921875 -5.234375 C 3.347656 -5.234375 3.71875 -5.125 4.03125 -4.90625 C 4.351562 -4.6875 4.597656 -4.382812 4.765625 -4 C 4.941406 -3.613281 5.03125 -3.179688 5.03125 -2.703125 C 5.03125 -2.160156 4.941406 -1.675781 4.765625 -1.25 C 4.597656 -0.820312 4.347656 -0.484375 4.015625 -0.234375 C 3.691406 0.015625 3.296875 0.140625 2.828125 0.140625 C 2.515625 0.140625 2.238281 0.0820312 2 -0.03125 C 1.757812 -0.15625 1.554688 -0.351562 1.390625 -0.625 L 1.375 -0.625 L 1.375 0 L 0.5625 0 L 0.5625 -6.984375 L 1.421875 -6.984375 L 1.421875 -4.4375 Z M 4.140625 -2.578125 C 4.140625 -3.234375 4.019531 -3.707031 3.78125 -4 C 3.550781 -4.300781 3.203125 -4.453125 2.734375 -4.453125 C 1.828125 -4.453125 1.375 -3.734375 1.375 -2.296875 C 1.375 -1.753906 1.507812 -1.332031 1.78125 -1.03125 C 2.050781 -0.738281 2.382812 -0.59375 2.78125 -0.59375 C 3.195312 -0.59375 3.523438 -0.765625 3.765625 -1.109375 C 4.015625 -1.460938 4.140625 -1.953125 4.140625 -2.578125 Z M 4.140625 -2.578125 "/></g></g></g><g fill="#000000" fill-opacity="1"><g transform="translate(109.173573, 495.169112)"><g><path d="M 0.65625 -6 L 0.65625 -6.984375 L 1.5 -6.984375 L 1.5 -6 Z M 0.65625 0 L 0.65625 -5.078125 L 1.5 -5.078125 L 1.5 0 Z M 0.65625 0 "/></g></g></g><g fill="#000000" fill-opacity="1"><g transform="translate(111.328122, 495.169112)"><g><path d="M 4.875 -0.578125 C 4.957031 -0.578125 5.050781 -0.59375 5.15625 -0.625 L 5.15625 0 C 4.957031 0.0625 4.796875 0.09375 4.671875 0.09375 C 4.390625 0.09375 4.171875 0.0351562 4.015625 -0.078125 C 3.867188 -0.203125 3.789062 -0.40625 3.78125 -0.6875 C 3.289062 -0.132812 2.679688 0.140625 1.953125 0.140625 C 1.484375 0.140625 1.097656 0.00390625 0.796875 -0.265625 C 0.492188 -0.535156 0.34375 -0.890625 0.34375 -1.328125 C 0.34375 -1.765625 0.472656 -2.117188 0.734375 -2.390625 C 0.992188 -2.671875 1.378906 -2.847656 1.890625 -2.921875 L 3.296875 -3.09375 C 3.453125 -3.113281 3.566406 -3.164062 3.640625 -3.25 C 3.710938 -3.34375 3.75 -3.488281 3.75 -3.6875 C 3.75 -4.238281 3.351562 -4.515625 2.5625 -4.515625 C 2.207031 -4.515625 1.929688 -4.4375 1.734375 -4.28125 C 1.546875 -4.125 1.429688 -3.875 1.390625 -3.53125 L 0.609375 -3.53125 C 0.617188 -4.082031 0.796875 -4.503906 1.140625 -4.796875 C 1.484375 -5.085938 1.988281 -5.234375 2.65625 -5.234375 C 3.226562 -5.234375 3.691406 -5.113281 4.046875 -4.875 C 4.410156 -4.632812 4.59375 -4.273438 4.59375 -3.796875 L 4.59375 -0.859375 C 4.59375 -0.773438 4.613281 -0.707031 4.65625 -0.65625 C 4.695312 -0.601562 4.769531 -0.578125 4.875 -0.578125 Z M 3.734375 -1.765625 L 3.734375 -2.59375 C 3.648438 -2.53125 3.519531 -2.476562 3.34375 -2.4375 C 3.175781 -2.394531 2.796875 -2.332031 2.203125 -2.25 C 1.890625 -2.207031 1.648438 -2.117188 1.484375 -1.984375 C 1.316406 -1.859375 1.234375 -1.675781 1.234375 -1.4375 C 1.234375 -0.851562 1.539062 -0.5625 2.15625 -0.5625 C 2.425781 -0.5625 2.679688 -0.613281 2.921875 -0.71875 C 3.160156 -0.832031 3.351562 -0.976562 3.5 -1.15625 C 3.65625 -1.34375 3.734375 -1.546875 3.734375 -1.765625 Z M 3.734375 -1.765625 "/></g></g></g><g fill="#000000" fill-opacity="1"><g transform="translate(127.31691, 477.258833)"><g/></g></g><g fill="#000000" fill-opacity="1"><g transform="translate(130.392152, 477.258833)"><g><path d="M 2.578125 0 L 2.578125 -4.84375 L 0.984375 -4.84375 L 0.984375 -5.53125 C 1.421875 -5.550781 1.742188 -5.59375 1.953125 -5.65625 C 2.171875 -5.726562 2.34375 -5.847656 2.46875 -6.015625 C 2.601562 -6.191406 2.71875 -6.460938 2.8125 -6.828125 L 3.484375 -6.828125 L 3.484375 0 Z M 2.578125 0 "/></g></g></g><g fill="#000000" fill-opacity="1"><g transform="translate(136.157458, 477.258833)"><g><path d="M 4.890625 -5.015625 L 4.046875 -5.015625 C 3.992188 -5.328125 3.875 -5.578125 3.6875 -5.765625 C 3.5 -5.960938 3.222656 -6.0625 2.859375 -6.0625 C 2.367188 -6.0625 1.976562 -5.816406 1.6875 -5.328125 C 1.40625 -4.847656 1.257812 -4.25 1.25 -3.53125 L 1.265625 -3.515625 C 1.421875 -3.785156 1.640625 -3.992188 1.921875 -4.140625 C 2.210938 -4.285156 2.523438 -4.359375 2.859375 -4.359375 C 3.242188 -4.359375 3.601562 -4.269531 3.9375 -4.09375 C 4.269531 -3.925781 4.535156 -3.675781 4.734375 -3.34375 C 4.929688 -3.019531 5.03125 -2.625 5.03125 -2.15625 C 5.03125 -1.757812 4.941406 -1.378906 4.765625 -1.015625 C 4.597656 -0.660156 4.34375 -0.367188 4 -0.140625 C 3.65625 0.078125 3.238281 0.1875 2.75 0.1875 C 2.394531 0.1875 2.039062 0.101562 1.6875 -0.0625 C 1.332031 -0.238281 1.023438 -0.566406 0.765625 -1.046875 C 0.503906 -1.535156 0.375 -2.210938 0.375 -3.078125 C 0.375 -4.265625 0.59375 -5.1875 1.03125 -5.84375 C 1.46875 -6.5 2.09375 -6.828125 2.90625 -6.828125 C 3.269531 -6.828125 3.597656 -6.75 3.890625 -6.59375 C 4.179688 -6.445312 4.414062 -6.234375 4.59375 -5.953125 C 4.78125 -5.679688 4.878906 -5.367188 4.890625 -5.015625 Z M 2.8125 -0.578125 C 3.195312 -0.578125 3.515625 -0.71875 3.765625 -1 C 4.023438 -1.28125 4.15625 -1.660156 4.15625 -2.140625 C 4.15625 -2.554688 4.03125 -2.898438 3.78125 -3.171875 C 3.53125 -3.453125 3.191406 -3.59375 2.765625 -3.59375 C 2.335938 -3.59375 2 -3.453125 1.75 -3.171875 C 1.5 -2.898438 1.375 -2.539062 1.375 -2.09375 C 1.375 -1.65625 1.5 -1.289062 1.75 -1 C 2.007812 -0.71875 2.363281 -0.578125 2.8125 -0.578125 Z M 2.8125 -0.578125 "/></g></g></g><g fill="#000000" fill-opacity="1"><g transform="translate(141.922763, 477.258833)"><g/></g></g><g fill="#000000" fill-opacity="1"><g transform="translate(144.990025, 477.258833)"><g><path d="M 2.71875 0.140625 C 2.21875 0.140625 1.785156 0.0195312 1.421875 -0.21875 C 1.066406 -0.457031 0.796875 -0.78125 0.609375 -1.1875 C 0.429688 -1.59375 0.34375 -2.046875 0.34375 -2.546875 C 0.34375 -3.054688 0.4375 -3.515625 0.625 -3.921875 C 0.8125 -4.328125 1.082031 -4.644531 1.4375 -4.875 C 1.800781 -5.113281 2.222656 -5.234375 2.703125 -5.234375 C 3.191406 -5.234375 3.613281 -5.113281 3.96875 -4.875 C 4.332031 -4.632812 4.601562 -4.304688 4.78125 -3.890625 C 4.96875 -3.484375 5.0625 -3.035156 5.0625 -2.546875 C 5.0625 -2.046875 4.96875 -1.585938 4.78125 -1.171875 C 4.59375 -0.765625 4.320312 -0.441406 3.96875 -0.203125 C 3.613281 0.0234375 3.195312 0.140625 2.71875 0.140625 Z M 4.171875 -2.515625 C 4.171875 -3.085938 4.046875 -3.554688 3.796875 -3.921875 C 3.546875 -4.296875 3.175781 -4.484375 2.6875 -4.484375 C 2.226562 -4.484375 1.867188 -4.300781 1.609375 -3.9375 C 1.347656 -3.582031 1.21875 -3.117188 1.21875 -2.546875 C 1.21875 -1.984375 1.347656 -1.519531 1.609375 -1.15625 C 1.867188 -0.789062 2.234375 -0.609375 2.703125 -0.609375 C 3.179688 -0.609375 3.546875 -0.789062 3.796875 -1.15625 C 4.046875 -1.519531 4.171875 -1.972656 4.171875 -2.515625 Z M 4.171875 -2.515625 "/></g></g></g><g fill="#000000" fill-opacity="1"><g transform="translate(150.755331, 477.258833)"><g><path d="M 1.4375 -0.703125 L 4.5625 -0.703125 L 4.5625 0 L 0.296875 0 L 0.296875 -0.671875 L 3.359375 -4.375 L 0.53125 -4.375 L 0.53125 -5.078125 L 4.46875 -5.078125 L 4.46875 -4.390625 Z M 1.4375 -0.703125 "/></g></g></g><g fill="#000000" fill-opacity="1"><g transform="translate(155.977144, 477.258833)"><g/></g></g><g fill="#000000" fill-opacity="1"><g transform="translate(159.044408, 477.258833)"><g><path d="M 0.90625 2.1875 L 0.90625 -7.53125 L 1.625 -7.53125 L 1.625 2.1875 Z M 0.90625 2.1875 "/></g></g></g><path stroke-linecap="round" transform="matrix(0.00000000130611, 0.748348, -0.748348, 0.00000000130611, 127.68537, 483.601208)" fill="none" stroke-linejoin="miter" d="M 0.501577 0.498258 L 23.594109 0.498258 " stroke="#000000" stroke-width="1" stroke-opacity="1" stroke-miterlimit="4"/><g fill="#000000" fill-opacity="1"><g transform="translate(128.240652, 494.233904)"><g/></g></g><g fill="#000000" fill-opacity="1"><g transform="translate(130.896422, 494.233904)"><g/></g></g><g fill="#000000" fill-opacity="1"><g transform="translate(133.552192, 494.233904)"><g/></g></g><g fill="#000000" fill-opacity="1"><g transform="translate(136.215235, 494.233904)"><g><path d="M 5.125 -2.078125 L 0.453125 -0.109375 L 0.453125 -0.875 L 4.1875 -2.421875 L 0.453125 -3.96875 L 0.453125 -4.734375 L 5.125 -2.75 Z M 5.125 -2.078125 "/></g></g></g><g fill="#000000" fill-opacity="1"><g transform="translate(141.794274, 494.233904)"><g/></g></g><g fill="#000000" fill-opacity="1"><g transform="translate(144.450043, 494.233904)"><g><path d="M 2.53125 0 L 2.53125 -4.765625 L 0.96875 -4.765625 L 0.96875 -5.4375 C 1.394531 -5.46875 1.710938 -5.515625 1.921875 -5.578125 C 2.140625 -5.648438 2.3125 -5.769531 2.4375 -5.9375 C 2.5625 -6.101562 2.671875 -6.363281 2.765625 -6.71875 L 3.4375 -6.71875 L 3.4375 0 Z M 2.53125 0 "/></g></g></g><g fill="#000000" fill-opacity="1"><g transform="translate(149.761594, 494.233904)"><g><path d="M 0.828125 1.40625 L 0.828125 0.96875 C 0.992188 0.957031 1.117188 0.867188 1.203125 0.703125 C 1.296875 0.535156 1.34375 0.300781 1.34375 0 L 0.828125 0 L 0.828125 -1.015625 L 1.828125 -1.015625 L 1.828125 -0.0625 C 1.828125 0.363281 1.738281 0.703125 1.5625 0.953125 C 1.382812 1.210938 1.140625 1.363281 0.828125 1.40625 Z M 0.828125 1.40625 "/></g></g></g><g fill="#000000" fill-opacity="1"><g transform="translate(152.417364, 494.233904)"><g><path d="M 1.6875 -5.75 L 1.40625 -3.90625 C 1.601562 -4.050781 1.800781 -4.15625 2 -4.21875 C 2.195312 -4.289062 2.429688 -4.328125 2.703125 -4.328125 C 3.097656 -4.328125 3.460938 -4.234375 3.796875 -4.046875 C 4.140625 -3.867188 4.410156 -3.617188 4.609375 -3.296875 C 4.816406 -2.972656 4.921875 -2.601562 4.921875 -2.1875 C 4.921875 -1.738281 4.828125 -1.332031 4.640625 -0.96875 C 4.460938 -0.613281 4.191406 -0.332031 3.828125 -0.125 C 3.472656 0.0820312 3.023438 0.1875 2.484375 0.1875 C 1.847656 0.1875 1.335938 0.0234375 0.953125 -0.296875 C 0.578125 -0.628906 0.363281 -1.085938 0.3125 -1.671875 L 1.171875 -1.671875 C 1.222656 -1.285156 1.375 -1 1.625 -0.8125 C 1.875 -0.632812 2.195312 -0.546875 2.59375 -0.546875 C 2.863281 -0.546875 3.109375 -0.613281 3.328125 -0.75 C 3.546875 -0.882812 3.710938 -1.066406 3.828125 -1.296875 C 3.953125 -1.523438 4.015625 -1.785156 4.015625 -2.078125 C 4.015625 -2.535156 3.878906 -2.898438 3.609375 -3.171875 C 3.335938 -3.441406 2.976562 -3.578125 2.53125 -3.578125 C 2.050781 -3.578125 1.632812 -3.363281 1.28125 -2.9375 L 0.546875 -2.96875 L 1.0625 -6.578125 L 4.546875 -6.578125 L 4.546875 -5.75 Z M 1.6875 -5.75 "/></g></g></g><g fill="#000000" fill-opacity="1"><g transform="translate(157.728915, 494.233904)"><g><path d="M 2.671875 0.1875 C 1.910156 0.1875 1.332031 -0.117188 0.9375 -0.734375 C 0.550781 -1.347656 0.359375 -2.191406 0.359375 -3.265625 C 0.359375 -4.367188 0.554688 -5.21875 0.953125 -5.8125 C 1.347656 -6.414062 1.921875 -6.71875 2.671875 -6.71875 C 3.429688 -6.71875 4.003906 -6.40625 4.390625 -5.78125 C 4.773438 -5.15625 4.96875 -4.316406 4.96875 -3.265625 C 4.96875 -2.210938 4.773438 -1.375 4.390625 -0.75 C 4.003906 -0.125 3.429688 0.1875 2.671875 0.1875 Z M 4.0625 -3.21875 C 4.0625 -5.050781 3.59375 -5.96875 2.65625 -5.96875 C 2.1875 -5.96875 1.832031 -5.738281 1.59375 -5.28125 C 1.363281 -4.820312 1.25 -4.148438 1.25 -3.265625 C 1.25 -2.398438 1.363281 -1.734375 1.59375 -1.265625 C 1.820312 -0.804688 2.175781 -0.578125 2.65625 -0.578125 C 3.125 -0.578125 3.472656 -0.8125 3.703125 -1.28125 C 3.941406 -1.75 4.0625 -2.394531 4.0625 -3.21875 Z M 4.0625 -3.21875 "/></g></g></g><g fill="#000000" fill-opacity="1"><g transform="translate(163.040466, 494.233904)"><g><path d="M 2.671875 0.1875 C 1.910156 0.1875 1.332031 -0.117188 0.9375 -0.734375 C 0.550781 -1.347656 0.359375 -2.191406 0.359375 -3.265625 C 0.359375 -4.367188 0.554688 -5.21875 0.953125 -5.8125 C 1.347656 -6.414062 1.921875 -6.71875 2.671875 -6.71875 C 3.429688 -6.71875 4.003906 -6.40625 4.390625 -5.78125 C 4.773438 -5.15625 4.96875 -4.316406 4.96875 -3.265625 C 4.96875 -2.210938 4.773438 -1.375 4.390625 -0.75 C 4.003906 -0.125 3.429688 0.1875 2.671875 0.1875 Z M 4.0625 -3.21875 C 4.0625 -5.050781 3.59375 -5.96875 2.65625 -5.96875 C 2.1875 -5.96875 1.832031 -5.738281 1.59375 -5.28125 C 1.363281 -4.820312 1.25 -4.148438 1.25 -3.265625 C 1.25 -2.398438 1.363281 -1.734375 1.59375 -1.265625 C 1.820312 -0.804688 2.175781 -0.578125 2.65625 -0.578125 C 3.125 -0.578125 3.472656 -0.8125 3.703125 -1.28125 C 3.941406 -1.75 4.0625 -2.394531 4.0625 -3.21875 Z M 4.0625 -3.21875 "/></g></g></g><g fill="#000000" fill-opacity="1"><g transform="translate(168.352017, 494.233904)"><g/></g></g><g fill="#000000" fill-opacity="1"><g transform="translate(171.007787, 494.233904)"><g><path d="M 4.28125 -4.328125 C 4.539062 -4.648438 4.78125 -4.863281 5 -4.96875 C 5.226562 -5.082031 5.484375 -5.140625 5.765625 -5.140625 C 6.242188 -5.140625 6.628906 -4.988281 6.921875 -4.6875 C 7.210938 -4.394531 7.359375 -4 7.359375 -3.5 L 7.359375 0 L 6.515625 0 L 6.515625 -3.21875 C 6.515625 -3.613281 6.441406 -3.90625 6.296875 -4.09375 C 6.148438 -4.289062 5.910156 -4.390625 5.578125 -4.390625 C 5.367188 -4.390625 5.171875 -4.328125 4.984375 -4.203125 C 4.804688 -4.078125 4.664062 -3.910156 4.5625 -3.703125 C 4.457031 -3.492188 4.40625 -3.265625 4.40625 -3.015625 L 4.40625 0 L 3.5625 0 L 3.5625 -3.46875 C 3.5625 -3.75 3.492188 -3.972656 3.359375 -4.140625 C 3.222656 -4.304688 3.03125 -4.390625 2.78125 -4.390625 C 2.382812 -4.390625 2.066406 -4.238281 1.828125 -3.9375 C 1.585938 -3.644531 1.46875 -3.253906 1.46875 -2.765625 L 1.46875 0 L 0.625 0 L 0.625 -5 L 1.421875 -5 L 1.421875 -4.296875 L 1.4375 -4.296875 C 1.820312 -4.859375 2.320312 -5.140625 2.9375 -5.140625 C 3.226562 -5.140625 3.488281 -5.070312 3.71875 -4.9375 C 3.957031 -4.8125 4.144531 -4.609375 4.28125 -4.328125 Z M 4.28125 -4.328125 "/></g></g></g><g fill="#000000" fill-opacity="1"><g transform="translate(178.965562, 494.233904)"><g><path d="M 4.28125 -3.578125 L 3.46875 -3.578125 C 3.46875 -3.847656 3.367188 -4.054688 3.171875 -4.203125 C 2.972656 -4.347656 2.679688 -4.421875 2.296875 -4.421875 C 1.992188 -4.421875 1.75 -4.359375 1.5625 -4.234375 C 1.375 -4.109375 1.28125 -3.929688 1.28125 -3.703125 C 1.28125 -3.535156 1.332031 -3.40625 1.4375 -3.3125 C 1.550781 -3.21875 1.773438 -3.132812 2.109375 -3.0625 L 3.0625 -2.828125 C 3.550781 -2.703125 3.898438 -2.535156 4.109375 -2.328125 C 4.328125 -2.128906 4.4375 -1.859375 4.4375 -1.515625 C 4.4375 -1.179688 4.351562 -0.890625 4.1875 -0.640625 C 4.019531 -0.390625 3.785156 -0.195312 3.484375 -0.0625 C 3.179688 0.0703125 2.835938 0.140625 2.453125 0.140625 C 1.046875 0.140625 0.332031 -0.441406 0.3125 -1.609375 L 1.125 -1.609375 C 1.132812 -1.242188 1.253906 -0.976562 1.484375 -0.8125 C 1.710938 -0.65625 2.03125 -0.578125 2.4375 -0.578125 C 2.789062 -0.578125 3.070312 -0.644531 3.28125 -0.78125 C 3.488281 -0.925781 3.59375 -1.125 3.59375 -1.375 C 3.59375 -1.53125 3.546875 -1.648438 3.453125 -1.734375 C 3.359375 -1.828125 3.242188 -1.894531 3.109375 -1.9375 C 2.984375 -1.988281 2.796875 -2.046875 2.546875 -2.109375 L 1.671875 -2.328125 C 1.296875 -2.410156 1 -2.546875 0.78125 -2.734375 C 0.570312 -2.921875 0.46875 -3.191406 0.46875 -3.546875 C 0.46875 -4.035156 0.640625 -4.421875 0.984375 -4.703125 C 1.335938 -4.992188 1.804688 -5.140625 2.390625 -5.140625 C 2.972656 -5.140625 3.425781 -4.992188 3.75 -4.703125 C 4.070312 -4.421875 4.25 -4.046875 4.28125 -3.578125 Z M 4.28125 -3.578125 "/></g></g></g><g fill="#000000" fill-opacity="1"><g transform="translate(183.742138, 494.233904)"><g><path d="M 3.859375 -3.0625 C 3.859375 -3.53125 3.773438 -3.867188 3.609375 -4.078125 C 3.441406 -4.285156 3.171875 -4.390625 2.796875 -4.390625 C 2.398438 -4.390625 2.078125 -4.238281 1.828125 -3.9375 C 1.585938 -3.644531 1.46875 -3.253906 1.46875 -2.765625 L 1.46875 0 L 0.625 0 L 0.625 -5 L 1.421875 -5 L 1.421875 -4.296875 L 1.4375 -4.296875 C 1.65625 -4.597656 1.882812 -4.8125 2.125 -4.9375 C 2.375 -5.070312 2.644531 -5.140625 2.9375 -5.140625 C 3.5 -5.140625 3.929688 -4.988281 4.234375 -4.6875 C 4.535156 -4.394531 4.6875 -3.976562 4.6875 -3.4375 L 4.6875 0 L 3.859375 0 Z M 3.859375 -3.0625 "/></g></g></g><g fill="#000000" fill-opacity="1"><g transform="translate(189.053689, 494.233904)"><g><path d="M 4.28125 -4.328125 C 4.539062 -4.648438 4.78125 -4.863281 5 -4.96875 C 5.226562 -5.082031 5.484375 -5.140625 5.765625 -5.140625 C 6.242188 -5.140625 6.628906 -4.988281 6.921875 -4.6875 C 7.210938 -4.394531 7.359375 -4 7.359375 -3.5 L 7.359375 0 L 6.515625 0 L 6.515625 -3.21875 C 6.515625 -3.613281 6.441406 -3.90625 6.296875 -4.09375 C 6.148438 -4.289062 5.910156 -4.390625 5.578125 -4.390625 C 5.367188 -4.390625 5.171875 -4.328125 4.984375 -4.203125 C 4.804688 -4.078125 4.664062 -3.910156 4.5625 -3.703125 C 4.457031 -3.492188 4.40625 -3.265625 4.40625 -3.015625 L 4.40625 0 L 3.5625 0 L 3.5625 -3.46875 C 3.5625 -3.75 3.492188 -3.972656 3.359375 -4.140625 C 3.222656 -4.304688 3.03125 -4.390625 2.78125 -4.390625 C 2.382812 -4.390625 2.066406 -4.238281 1.828125 -3.9375 C 1.585938 -3.644531 1.46875 -3.253906 1.46875 -2.765625 L 1.46875 0 L 0.625 0 L 0.625 -5 L 1.421875 -5 L 1.421875 -4.296875 L 1.4375 -4.296875 C 1.820312 -4.859375 2.320312 -5.140625 2.9375 -5.140625 C 3.226562 -5.140625 3.488281 -5.070312 3.71875 -4.9375 C 3.957031 -4.8125 4.144531 -4.609375 4.28125 -4.328125 Z M 4.28125 -4.328125 "/></g></g></g><path stroke-linecap="round" transform="matrix(0.00000000130611, 0.748348, -0.748348, 0.00000000130611, 113.647028, 466.11501)" fill="none" stroke-linejoin="miter" d="M 0.498794 0.49922 L 23.591326 0.49922 " stroke="#000000" stroke-width="1" stroke-opacity="1" stroke-miterlimit="4"/><path stroke-linecap="round" transform="matrix(0.748344, -0.00240713, 0.00240713, 0.748344, 28.806525, 501.795619)" fill="none" stroke-linejoin="miter" d="M 0.502266 0.49918 L 225.519911 0.497412 " stroke="#000000" stroke-width="1" stroke-opacity="1" stroke-miterlimit="4"/><g fill="#000000" fill-opacity="1"><g transform="translate(164.202384, 477.258833)"><g><path d="M 2.578125 0 L 2.578125 -4.84375 L 0.984375 -4.84375 L 0.984375 -5.53125 C 1.421875 -5.550781 1.742188 -5.59375 1.953125 -5.65625 C 2.171875 -5.726562 2.34375 -5.847656 2.46875 -6.015625 C 2.601562 -6.191406 2.71875 -6.460938 2.8125 -6.828125 L 3.484375 -6.828125 L 3.484375 0 Z M 2.578125 0 "/></g></g></g><g fill="#000000" fill-opacity="1"><g transform="translate(169.967689, 477.258833)"><g/></g></g><g fill="#000000" fill-opacity="1"><g transform="translate(173.034952, 477.258833)"><g><path d="M 5.21875 -0.828125 L 5.21875 0 L 0.734375 0 L 0.734375 -6.984375 L 1.6875 -6.984375 L 1.6875 -0.828125 Z M 5.21875 -0.828125 "/></g></g></g><g fill="#000000" fill-opacity="1"><g transform="translate(178.800257, 477.258833)"><g><path d="M 5.765625 -5.21875 C 5.765625 -4.882812 5.679688 -4.59375 5.515625 -4.34375 C 5.359375 -4.09375 5.128906 -3.898438 4.828125 -3.765625 C 5.285156 -3.597656 5.609375 -3.375 5.796875 -3.09375 C 5.992188 -2.820312 6.09375 -2.476562 6.09375 -2.0625 C 6.09375 -1.664062 5.992188 -1.3125 5.796875 -1 C 5.609375 -0.6875 5.332031 -0.441406 4.96875 -0.265625 C 4.613281 -0.0859375 4.210938 0 3.765625 0 L 0.71875 0 L 0.71875 -6.984375 L 3.796875 -6.984375 C 4.390625 -6.984375 4.863281 -6.816406 5.21875 -6.484375 C 5.582031 -6.160156 5.765625 -5.738281 5.765625 -5.21875 Z M 4.828125 -5.140625 C 4.828125 -5.492188 4.707031 -5.753906 4.46875 -5.921875 C 4.238281 -6.085938 3.882812 -6.171875 3.40625 -6.171875 L 1.65625 -6.171875 L 1.65625 -4.03125 L 3.34375 -4.03125 C 3.8125 -4.03125 4.175781 -4.109375 4.4375 -4.265625 C 4.695312 -4.429688 4.828125 -4.722656 4.828125 -5.140625 Z M 5.15625 -2.078125 C 5.15625 -2.859375 4.625 -3.25 3.5625 -3.25 L 1.65625 -3.25 L 1.65625 -0.8125 L 3.71875 -0.8125 C 4.164062 -0.8125 4.515625 -0.921875 4.765625 -1.140625 C 5.023438 -1.359375 5.15625 -1.671875 5.15625 -2.078125 Z M 5.15625 -2.078125 "/></g></g></g></svg>